<?xml version="1.0" encoding="UTF-8"?>
<svg version="1.1" xmlns="http://www.w3.org/2000/svg" width="100" height="100">
<path d="M0 0 C4.82272186 2.97827029 8.29765285 6.46224719 10.234375 11.89453125 C10.80210525 16.05313708 10.79344255 20.14069635 10.734375 24.33203125 C10.74984375 25.42580078 10.7653125 26.51957031 10.78125 27.64648438 C10.75081588 33.96536878 10.42518072 39.84539736 6.234375 44.89453125 C4.09570312 46.10327148 4.09570312 46.10327148 2.234375 46.89453125 C1.99513117 50.12432299 2.10754337 52.83819339 3.234375 55.89453125 C6.27298319 58.2664157 9.65977335 59.51014795 13.234375 60.89453125 C20.97898498 64.47307517 26.61804663 67.7243079 30.234375 75.89453125 C30.234375 78.86453125 30.234375 81.83453125 30.234375 84.89453125 C3.834375 84.89453125 -22.565625 84.89453125 -49.765625 84.89453125 C-49.765625 74.03246228 -49.765625 74.03246228 -44.29296875 68.37109375 C-38.82195074 63.27515735 -32.21390603 60.10445442 -25.203125 57.64453125 C-22.58847791 56.15810964 -22.58847791 56.15810964 -22.18359375 53.7109375 C-21.91595325 51.42350338 -21.77527668 49.19645642 -21.765625 46.89453125 C-22.38002441 46.63357666 -22.99442383 46.37262207 -23.62744141 46.10375977 C-27.32812196 44.0108766 -28.50461136 40.84586242 -29.765625 36.89453125 C-30.36554494 32.73427883 -30.4155694 28.65517336 -30.390625 24.45703125 C-30.42285156 23.37615234 -30.45507812 22.29527344 -30.48828125 21.18164062 C-30.49757233 13.52114775 -28.88950914 8.64566855 -23.765625 2.89453125 C-17.29271618 -2.6344117 -7.84970384 -3.13766411 0 0 Z M-20.765625 7.89453125 C-26.32528823 14.95680617 -26.38458831 22.18483325 -25.765625 30.89453125 C-24.90109714 35.19174327 -24.08689414 38.75093277 -20.703125 41.6796875 C-17.28385316 45.58841156 -17.87699692 50.43280859 -18.140625 55.38671875 C-18.765625 58.89453125 -18.765625 58.89453125 -20.140625 60.77734375 C-22.28873312 62.12886178 -24.38856618 63.00177328 -26.765625 63.89453125 C-36.65213532 68.19330611 -36.65213532 68.19330611 -43.765625 75.89453125 C-44.095625 77.54453125 -44.425625 79.19453125 -44.765625 80.89453125 C-21.665625 80.89453125 1.434375 80.89453125 25.234375 80.89453125 C24.22536734 75.84949296 22.96168058 73.24692118 19.234375 69.89453125 C16.65282776 68.24663334 13.95982914 66.96684921 11.171875 65.70703125 C1.15748924 61.04217152 1.15748924 61.04217152 -0.765625 58.89453125 C-1.65088767 53.63790258 -2.1997098 46.70449076 0.29296875 41.8203125 C1.55087046 40.4578967 2.89159334 39.17337093 4.234375 37.89453125 C7.61876982 29.83644835 7.38122918 19.94646499 4.29296875 11.8046875 C2.20409783 8.03547023 -0.93269379 5.81099685 -4.765625 3.89453125 C-11.18987415 3.18971255 -15.78406934 3.38740946 -20.765625 7.89453125 Z " fill="#000000" transform="translate(59.765625,7.10546875)"/>
</svg>
